<svg width="152" height="152" viewBox="0 0 152 152" xmlns="http://www.w3.org/2000/svg" version="1.1"><g overflow="hidden"><path d="M152,76 A76,76 0 0,1 14.974300276402715,121.29750515475811 L23.80696734166021,114.74128730341155 A65,65 0 0,0 141,76 Z" fill="#F087B1" stroke="1" stroke-width="3"/><text x="76" y="76" text-anchor="middle"><tspan style="color: black; font-size: 20px;">34,789</tspan><tspan x="76" y="96" style="color: rgb(215, 215, 215);">Total Fans</tspan></text></g><g overflow="hidden"><path d="M14.974300276402715,121.29750515475811 A76,76 0 0,1 0.6189033054371862,66.32062702831571 L11.529325195439696,67.72158890579632 A65,65 0 0,0 23.80696734166021,114.74128730341155 Z" fill="#4B6188" stroke="1" stroke-width="3"/><text x="76" y="76" text-anchor="middle"><tspan style="color: black; font-size: 20px;">34,789</tspan><tspan x="76" y="96" style="color: rgb(215, 215, 215);">Total Fans</tspan></text></g><g overflow="hidden"><path d="M0.6189033054371862,66.32062702831571 A76,76 0 0,1 44.910783574978154,6.649725147782206 L49.41053858386289,16.68726492902426 A65,65 0 0,0 11.529325195439696,67.72158890579632 Z" fill="#D7D7D7" stroke="1" stroke-width="3"/><text x="76" y="76" text-anchor="middle"><tspan style="color: black; font-size: 20px;">34,789</tspan><tspan x="76" y="96" style="color: rgb(215, 215, 215);">Total Fans</tspan></text></g><g overflow="hidden"><path d="M44.910783574978154,6.649725147782206 A76,76 0 0,1 152,75.99999999999999 L141,75.99999999999999 A65,65 0 0,0 49.41053858386289,16.68726492902426 Z" fill="#1DA1F2" stroke="1" stroke-width="3"/><text x="76" y="76" text-anchor="middle"><tspan style="color: black; font-size: 20px;">34,789</tspan><tspan x="76" y="96" style="color: rgb(215, 215, 215);">Total Fans</tspan></text></g></svg>